<svg width="256" height="256" viewBox="0 0 256 256" fill="none" xmlns="http://www.w3.org/2000/svg">
<path d="M124.984 70.1891C123.741 70.9558 118.994 73.7247 114.436 76.3425C109.878 78.9599 102.335 83.2937 97.6736 85.9731C93.0121 88.6524 86.2765 92.5141 82.7058 94.5545C76.6001 98.0431 76.1985 98.3402 75.9593 99.5479C75.8192 100.254 75.8166 114.032 75.9529 130.165C76.1454 152.912 76.307 159.598 76.6724 159.943C76.9319 160.188 80.0257 162.028 83.5478 164.033C87.0698 166.038 92.3246 169.076 95.2251 170.784C100.524 173.905 116.169 182.906 123.806 187.226C126.975 189.019 128.04 189.46 128.514 189.174C128.851 188.971 134.128 185.945 140.24 182.451C151.489 176.018 158.865 171.768 172.352 163.948L179.792 159.635V98.5193L174.801 95.6858C172.056 94.1271 169.216 92.4852 168.491 92.0365C167.197 91.2357 155.068 84.221 149.108 80.8267C147.442 79.8773 144.129 77.9841 141.746 76.6194C139.364 75.2544 136.482 73.6059 135.343 72.9558C134.203 72.3054 132.13 71.0897 130.735 70.2537C129.34 69.4177 127.984 68.7475 127.721 68.7644C127.459 68.7812 126.227 69.4221 124.984 70.1891Z" fill="black"/>
<path fill-rule="evenodd" clip-rule="evenodd" d="M53.3333 0C23.8781 0 0 23.8781 0 53.3333V202.667C0 232.122 23.8781 256 53.3333 256H202.667C232.122 256 256 232.122 256 202.667V53.3333C256 23.8781 232.122 0 202.667 0H53.3333ZM51.1547 86.4929C52.3635 84.0508 53.5225 82.4107 55.4862 80.363C55.6877 80.1529 55.8745 79.9562 56.0515 79.7697C56.478 79.3204 56.8482 78.9304 57.2333 78.5548C59.7656 76.0857 62.9441 74.2424 87.0207 60.2793C88.5405 59.3979 90.1435 58.4682 91.8349 57.487L92.561 57.0658C114.581 44.2919 117.277 42.7279 120.195 41.9065C120.602 41.7919 121.013 41.6918 121.482 41.5776L121.593 41.5505C124.981 40.7251 131.034 40.6613 134.023 41.4192C136.333 42.005 140.569 43.9397 144.3 46.1122C156.974 53.4933 165.606 58.5065 177.532 65.4118C185.301 69.9107 192.762 74.3051 194.111 75.1774C201.67 80.0637 206.436 87.5567 207.656 96.4705C207.98 98.8421 208.062 108.333 207.956 131.279C207.815 161.865 207.787 162.906 207.033 165.395C204.259 174.553 200.498 179.214 191.534 184.602C189.808 185.639 188.283 186.494 188.144 186.502C188.005 186.508 184.416 188.558 180.169 191.056C175.922 193.553 168.209 198.029 163.029 201.001C157.85 203.974 152.849 206.852 151.917 207.398C136.871 216.205 134.335 217.149 126.567 216.84C123.159 216.705 121.364 216.449 119.625 215.849C117.359 215.067 107.568 209.781 98.2387 204.301C95.7525 202.841 90.3282 199.696 86.1846 197.313C82.041 194.93 77.0404 192.041 75.0722 190.895C73.104 189.748 69.0358 187.393 66.0317 185.661C56.9165 180.408 52.5398 175.978 50.019 169.457C47.9242 164.037 47.9133 163.806 48.0477 127.569C48.0563 125.276 48.0634 123.134 48.0702 121.132C48.1506 97.18 48.1641 93.1881 49.5791 89.7392C49.8621 89.0494 50.2011 88.3813 50.608 87.5797C50.7781 87.2445 50.96 86.8861 51.1547 86.4929Z" fill="black"/>
</svg>
