<svg width="1024" height="1024" viewBox="0 0 1024 1024" fill="none" xmlns="http://www.w3.org/2000/svg">
<path d="M80 116H932V900H80V116Z" fill="white"/>
<path d="M499.935 280.757C494.962 283.823 475.977 294.899 457.745 305.37C439.513 315.839 409.341 333.175 390.694 343.892C372.048 354.61 345.106 370.057 330.823 378.218C306.4 392.172 304.794 393.361 303.837 398.191C303.277 401.016 303.266 456.127 303.812 520.661C304.582 611.648 305.228 638.392 306.69 639.771C307.728 640.75 320.103 648.112 334.191 656.132C348.279 664.151 369.298 676.304 380.901 683.138C402.095 695.622 464.676 731.623 495.223 748.904C507.899 756.076 512.16 757.839 514.057 756.696C515.406 755.884 536.511 743.781 560.958 729.802C605.958 704.071 635.46 687.073 689.41 655.792L719.168 638.539V394.077L699.203 382.743C688.222 376.508 676.866 369.941 673.965 368.146C668.788 364.943 620.272 336.884 596.433 323.307C589.768 319.509 576.516 311.936 566.985 306.478C557.455 301.018 545.928 294.423 541.37 291.823C536.812 289.222 528.519 284.359 522.94 281.015C517.362 277.671 511.937 274.99 510.886 275.057C509.835 275.125 504.907 277.688 499.935 280.757Z" fill="black"/>
<path fill-rule="evenodd" clip-rule="evenodd" d="M213.333 0C95.5126 0 0 95.5126 0 213.333V810.667C0 928.487 95.5126 1024 213.333 1024H810.667C928.487 1024 1024 928.487 1024 810.667V213.333C1024 95.5126 928.487 0 810.667 0H213.333ZM204.619 345.971C209.454 336.203 214.09 329.643 221.945 321.452C222.751 320.612 223.498 319.825 224.206 319.079C225.912 317.281 227.393 315.721 228.933 314.219C239.062 304.343 251.776 296.97 348.083 241.117C354.162 237.592 360.574 233.873 367.34 229.948L370.244 228.263C458.324 177.168 469.109 170.912 480.779 167.626C482.407 167.168 484.053 166.767 485.928 166.311L486.374 166.202C499.922 162.901 524.136 162.645 536.091 165.677C545.332 168.02 562.277 175.759 577.198 184.449C627.896 213.973 662.425 234.026 710.128 261.647C741.204 279.643 771.047 297.22 776.445 300.71C806.681 320.255 825.746 350.227 830.623 385.882C831.922 395.368 832.249 433.333 831.826 525.117C831.26 647.459 831.147 651.623 828.131 661.581C817.035 698.21 801.99 716.854 766.135 738.408C759.233 742.558 753.13 745.977 752.574 746.006C752.018 746.034 737.664 754.232 720.675 764.223C703.686 774.213 672.835 792.116 652.117 804.004C631.399 815.894 611.397 827.407 607.668 829.591C547.485 864.819 537.341 868.597 506.267 867.362C492.634 866.82 485.455 865.794 478.501 863.397C469.436 860.27 430.273 839.124 392.955 817.205C383.01 811.363 361.313 798.785 344.738 789.252C328.164 779.718 308.162 768.166 300.289 763.579C292.416 758.992 276.143 749.572 264.127 742.646C227.666 721.632 210.159 703.914 200.076 677.827C191.697 656.147 191.653 655.224 192.191 510.275C192.225 501.104 192.254 492.537 192.281 484.528C192.603 388.72 192.656 372.753 198.316 358.957C199.448 356.198 200.805 353.525 202.432 350.319C203.112 348.978 203.84 347.544 204.619 345.971Z" fill="black"/>
</svg>
